<svg width="235" height="234" viewBox="0 0 235 234" fill="none" xmlns="http://www.w3.org/2000/svg">
<g id="Group 39591" filter="url(#filter0_d_1_196)">
<rect id="Rectangle 190" x="65.4612" y="65.9117" width="103.188" height="103.188" rx="29.7657" transform="rotate(-0.5 65.4612 65.9117)" fill="url(#paint0_linear_1_196)"/>
<g id="Group">
<path id="Vector" d="M127.989 130.57C127.031 130.578 126.247 129.787 126.238 128.804L126.108 113.841C126.099 112.858 126.869 112.053 127.828 112.045C128.786 112.037 129.57 112.827 129.579 113.811L129.709 128.773C129.718 129.757 128.948 130.561 127.989 130.57ZM131.802 136.611L137.149 131.072C139.09 129.063 140.189 126.287 140.164 123.457L140 104.724C139.949 98.8312 135.236 94.0776 129.494 94.1277L111.286 94.2866C108.521 94.3107 105.926 95.434 103.98 97.4496L98.6324 102.989C96.6919 104.998 95.5932 107.774 95.6179 110.604L95.7814 129.337C95.8328 135.23 100.546 139.983 106.288 139.933L124.496 139.774C127.261 139.75 129.856 138.627 131.802 136.611ZM129.525 97.6902C133.353 97.6568 136.495 100.826 136.529 104.755L136.693 123.487C136.709 125.374 135.977 127.224 134.683 128.564L129.335 134.103C128.038 135.447 126.308 136.196 124.465 136.212L106.257 136.371C102.429 136.404 99.2868 133.235 99.2525 129.306L99.0891 110.574C99.0726 108.687 99.8051 106.837 101.099 105.497L106.446 99.9577C107.744 98.614 109.473 97.8651 111.317 97.8491L129.525 97.6902ZM131.634 105.2L132.357 104.464C133.038 103.771 133.042 102.643 132.367 101.944C131.692 101.246 130.593 101.241 129.913 101.933L129.189 102.669C127.816 104.067 125.993 104.846 124.059 104.863L106.764 105.014C105.806 105.023 105.036 105.827 105.044 106.811C105.053 107.794 105.837 108.585 106.795 108.577L124.09 108.426C126.935 108.401 129.614 107.255 131.634 105.2Z" fill="white"/>
</g>
</g>
<defs>
<filter id="filter0_d_1_196" x="0.719788" y="0.269897" width="233.567" height="233.567" filterUnits="userSpaceOnUse" color-interpolation-filters="sRGB">
<feFlood flood-opacity="0" result="BackgroundImageFix"/>
<feColorMatrix in="SourceAlpha" type="matrix" values="0 0 0 0 0 0 0 0 0 0 0 0 0 0 0 0 0 0 127 0" result="hardAlpha"/>
<feOffset/>
<feGaussianBlur stdDeviation="32.5"/>
<feComposite in2="hardAlpha" operator="out"/>
<feColorMatrix type="matrix" values="0 0 0 0 0.423529 0 0 0 0 0.760784 0 0 0 0 0.341176 0 0 0 0.25 0"/>
<feBlend mode="normal" in2="BackgroundImageFix" result="effect1_dropShadow_1_196"/>
<feBlend mode="normal" in="SourceGraphic" in2="effect1_dropShadow_1_196" result="shape"/>
</filter>
<linearGradient id="paint0_linear_1_196" x1="168.649" y1="65.9117" x2="51.9389" y2="84.5853" gradientUnits="userSpaceOnUse">
<stop stop-color="#96C93D"/>
<stop offset="1" stop-color="#00B09B"/>
</linearGradient>
</defs>
</svg>
