<svg width="220" height="220" viewBox="0 0 220 220" fill="none" xmlns="http://www.w3.org/2000/svg">
<g id="Group 39592" filter="url(#filter0_d_1_188)">
<rect id="Rectangle 177" x="65.7427" y="65.7026" width="88.6969" height="88.6969" rx="25.5857" transform="rotate(-0.5 65.7427 65.7026)" fill="url(#paint0_linear_1_188)"/>
<g id="Group">
<path id="Vector" d="M119.49 121.281C118.666 121.288 117.992 120.608 117.985 119.763L117.873 106.902C117.865 106.056 118.527 105.365 119.351 105.357C120.175 105.35 120.849 106.03 120.856 106.876L120.968 119.737C120.976 120.582 120.314 121.274 119.49 121.281ZM122.767 126.474L127.364 121.713C129.032 119.985 129.976 117.599 129.955 115.167L129.814 99.0647C129.77 93.9992 125.719 89.9132 120.783 89.9563L105.132 90.0928C102.755 90.1136 100.525 91.0791 98.8525 92.8117L94.2557 97.5728C92.5878 99.3003 91.6434 101.686 91.6646 104.119L91.8051 120.221C91.8493 125.286 95.9007 129.372 100.836 129.329L116.487 129.193C118.864 129.172 121.094 128.206 122.767 126.474ZM120.81 93.0184C124.1 92.9897 126.801 95.7137 126.831 99.0907L126.971 115.193C126.985 116.815 126.356 118.405 125.244 119.557L120.647 124.318C119.532 125.473 118.045 126.117 116.46 126.131L100.81 126.267C97.5191 126.296 94.8182 123.572 94.7888 120.195L94.6482 104.093C94.6341 102.471 95.2637 100.88 96.3756 99.7288L100.972 94.9675C102.088 93.8125 103.574 93.1688 105.159 93.155L120.81 93.0184ZM122.623 99.4735L123.245 98.8407C123.83 98.2455 123.833 97.2759 123.253 96.6753C122.673 96.0747 121.728 96.0703 121.143 96.6656L120.521 97.2984C119.341 98.5001 117.774 99.1698 116.111 99.1843L101.246 99.314C100.422 99.3212 99.7599 100.013 99.7672 100.858C99.7746 101.704 100.449 102.383 101.272 102.376L116.138 102.247C118.583 102.225 120.886 101.24 122.623 99.4735Z" fill="white"/>
</g>
</g>
<defs>
<filter id="filter0_d_1_188" x="0.964966" y="0.150879" width="219.023" height="219.023" filterUnits="userSpaceOnUse" color-interpolation-filters="sRGB">
<feFlood flood-opacity="0" result="BackgroundImageFix"/>
<feColorMatrix in="SourceAlpha" type="matrix" values="0 0 0 0 0 0 0 0 0 0 0 0 0 0 0 0 0 0 127 0" result="hardAlpha"/>
<feOffset/>
<feGaussianBlur stdDeviation="32.5"/>
<feComposite in2="hardAlpha" operator="out"/>
<feColorMatrix type="matrix" values="0 0 0 0 0.423529 0 0 0 0 0.760784 0 0 0 0 0.341176 0 0 0 0.25 0"/>
<feBlend mode="normal" in2="BackgroundImageFix" result="effect1_dropShadow_1_188"/>
<feBlend mode="normal" in="SourceGraphic" in2="effect1_dropShadow_1_188" result="shape"/>
</filter>
<linearGradient id="paint0_linear_1_188" x1="154.44" y1="65.7026" x2="54.1194" y2="81.7539" gradientUnits="userSpaceOnUse">
<stop stop-color="#96C93D"/>
<stop offset="1" stop-color="#00B09B"/>
</linearGradient>
</defs>
</svg>
