<svg width="20" height="20" viewBox="0 0 20 20" fill="none" xmlns="http://www.w3.org/2000/svg">
<path id="Vector" d="M8.42105 0.803076C8.49143 0.640974 8.60485 0.501241 8.749 0.399022C8.89316 0.296803 9.06256 0.236006 9.23882 0.223223C9.41507 0.21044 9.59146 0.246163 9.74886 0.326511C9.90626 0.40686 10.0387 0.528766 10.1317 0.679016L10.1887 0.78765L11.2062 3.02325C12.094 4.97501 13.5567 6.60909 15.3986 7.70681L15.7088 7.88504L17.488 8.8661C17.629 8.94408 17.7484 9.05597 17.8353 9.19167C17.9221 9.32737 17.9738 9.48259 17.9856 9.64329C17.9974 9.80399 17.969 9.9651 17.9029 10.112C17.8368 10.259 17.7351 10.3871 17.607 10.4849L17.5042 10.5518L15.7409 11.5638C13.8806 12.6314 12.3906 14.2416 11.4703 16.1791L11.3238 16.5034L10.3455 18.7564C10.2753 18.9186 10.1621 19.0584 10.018 19.1607C9.87401 19.263 9.70465 19.3238 9.52845 19.3366C9.35226 19.3494 9.17593 19.3136 9.01863 19.2332C8.86133 19.1528 8.72908 19.0308 8.63626 18.8805L8.57786 18.7719L7.56176 16.5363C6.67321 14.5846 5.21009 12.9506 3.36797 11.8527L3.05912 11.6745L1.27852 10.6934C1.1361 10.6166 1.01538 10.5052 0.927471 10.3693C0.839564 10.2335 0.787329 10.0777 0.775614 9.91628C0.763898 9.7549 0.793062 9.59317 0.860428 9.44606C0.927793 9.29894 1.03118 9.1712 1.16101 9.07464L1.26381 9.00769L3.02702 7.99571C4.88645 6.92743 6.37579 5.31737 7.2962 3.38047L7.44412 3.05608L8.42105 0.803076ZM17.1702 0.254286C17.6551 1.32972 18.4736 2.22035 19.5043 2.79431C19.5391 2.81369 19.5681 2.84194 19.5885 2.87619C19.6088 2.91044 19.6197 2.94949 19.62 2.98932C19.6204 3.02915 19.6102 3.06837 19.5904 3.10297C19.5707 3.13757 19.5422 3.16633 19.5077 3.18631C18.4869 3.77776 17.684 4.68267 17.2183 5.76668C17.2 5.80785 17.1705 5.84298 17.133 5.86795C17.1052 5.88642 17.0737 5.89862 17.0407 5.90368C17.0077 5.90874 16.974 5.90655 16.9419 5.89727C16.9098 5.88798 16.8802 5.87181 16.855 5.84989C16.8299 5.82798 16.8097 5.80084 16.7961 5.77037C16.3115 4.69507 15.4929 3.80479 14.462 3.23178C14.4274 3.21204 14.3986 3.18358 14.3784 3.14924C14.3582 3.11491 14.3473 3.07589 14.3468 3.03605C14.3461 2.99613 14.3562 2.95675 14.3758 2.92199C14.3955 2.88723 14.424 2.85835 14.4586 2.83834C15.4796 2.24643 16.2824 1.34102 16.748 0.256535C16.7665 0.216125 16.796 0.181735 16.8331 0.157288C16.8702 0.132841 16.9134 0.119322 16.9579 0.118281C17.0023 0.118546 17.0458 0.131309 17.0833 0.155105C17.1208 0.1789 17.151 0.214205 17.1702 0.254286Z" fill="white"/>
</svg>
