<svg width="217" height="48" viewBox="0 0 217 48" fill="none" xmlns="http://www.w3.org/2000/svg">
<g id="nTPpAKXxrc1l95bAMWGC2qRo.svg" clip-path="url(#clip0_1_129)">
<path id="Vector" d="M66.5828 27.3065C66.5654 25.3094 65.4527 23.73 63.3162 23.362C64.6049 22.8784 65.3485 21.6692 65.335 20.1231C65.3143 17.761 63.3171 16.0603 60.7964 16.0823L54.9791 16.1331L55.1189 32.1526L61.7118 32.0951C64.5558 32.0703 66.6066 30.0337 66.5828 27.3065ZM57.8889 18.7062L60.4528 18.6839C61.6593 18.6733 62.5068 19.5034 62.516 20.5558C62.526 21.6938 61.693 22.5387 60.465 22.5494L57.9226 22.5716L57.8889 18.7062ZM57.9833 29.5291L57.9436 24.9766L61.1539 24.9486C62.6621 24.9354 63.7046 25.8928 63.7158 27.1812C63.7273 28.491 62.6803 29.4881 61.2152 29.5009L57.9832 29.5291L57.9833 29.5291ZM90.0808 28.6477L97.2338 28.5852L98.5759 31.7734L101.614 31.7469L94.752 15.786L92.2958 15.8074L85.735 31.8854L88.7728 31.8589L90.0808 28.6477ZM93.5797 19.7262L96.3084 26.231L90.9651 26.2776L93.5797 19.7262ZM112.611 25.2512C114.328 24.5275 115.52 22.7776 115.501 20.6731C115.476 17.7742 113.109 15.6258 110.243 15.6508L103.995 15.7053L104.135 31.7249L107.022 31.6997L106.972 26.009L109.838 25.984L113.335 31.6446L116.588 31.6162L112.611 25.2512ZM110.009 23.4055L106.95 23.4322L106.905 18.2785L110.201 18.2497C111.58 18.2377 112.623 19.2809 112.636 20.7625C112.671 22.2871 111.582 23.3918 110.009 23.4055ZM133.712 23.4993C133.671 18.818 130.647 15.4942 125.196 15.5417L119.443 15.5919L119.583 31.6116L125.357 31.5612C130.808 31.4921 133.753 28.2022 133.712 23.4993M122.447 28.9665L122.353 18.1437L125.003 18.1205C129.247 18.0835 130.797 20.3894 130.825 23.5245C130.851 26.5739 129.342 28.9063 125.119 28.9432L122.447 28.9665ZM149.466 31.3293L145.511 24.9855C147.228 24.2619 148.42 22.512 148.401 20.4076C148.376 17.5085 146.009 15.3601 143.143 15.3851L136.895 15.4396L137.035 31.4593L139.922 31.4341L139.872 25.7435L142.738 25.7185L146.213 31.3792L149.467 31.3508L149.466 31.3293ZM142.909 23.1184L139.85 23.1451L139.805 17.9914L143.101 17.9626C144.48 17.9506 145.523 18.9938 145.536 20.4754C145.55 22.0001 144.482 23.1047 142.909 23.1184ZM152.451 15.2825L155.338 15.2573L155.478 31.2768L152.59 31.302L152.451 15.2825ZM165.356 15.1698L159.604 15.22L159.743 31.2396L165.518 31.1892C170.969 31.1416 173.914 27.8517 173.872 23.1489C173.831 18.446 170.807 15.1223 165.356 15.1698ZM165.301 28.5925L162.629 28.6158L162.535 17.793L165.185 17.7699C169.429 17.7328 170.98 20.0387 171.007 23.1738C171.034 26.2232 169.524 28.5557 165.301 28.5925ZM187.299 28.4006L179.78 28.4662L179.741 24.0425L186.636 23.9824L186.613 21.4056L179.719 21.4657L179.685 17.6433L187.032 17.5792L187.01 14.9809L176.775 15.0702L176.915 31.0897L187.322 30.9989L187.299 28.4006ZM193.93 25.2717L196.795 25.2467L200.292 30.9073L203.546 30.8789L199.59 24.5351C201.308 23.8114 202.499 22.0615 202.481 19.957C202.455 17.058 200.088 14.9097 197.222 14.9347L190.974 14.9892L191.114 31.0088L194.001 30.9836L193.951 25.2715L193.93 25.2717ZM193.862 17.541L197.159 17.5123C198.538 17.5002 199.581 18.5434 199.594 20.0252C199.607 21.5713 198.54 22.6545 196.967 22.6682L193.907 22.6949L193.862 17.541ZM211.321 28.062C209.684 28.0763 208.362 27.2932 207.596 25.8611L207.53 25.7114L205.237 27.1703L205.303 27.2985C206.335 29.5445 208.544 30.8352 211.345 30.8108C214.728 30.7813 216.824 28.9804 216.799 26.1244C216.776 23.5475 215.172 22.4019 212.599 21.3935C212.274 21.2675 211.95 21.1415 211.669 21.0365C210.026 20.4066 209.226 20.0915 209.217 19.0178C209.209 18.1802 210.023 17.5504 211.122 17.5408C212.306 17.5305 213.15 17.9312 213.718 18.8067L213.805 18.9348L215.99 17.4124L215.903 17.2843C214.811 15.6403 213.144 14.7742 211.033 14.7926C208.21 14.8173 206.158 16.6178 206.179 19.0873C206.204 21.9218 208.324 22.9341 210.702 23.7939C212.583 24.4861 213.729 24.9486 213.74 26.2155C213.721 26.5163 213.626 28.0419 211.321 28.062ZM76.9661 31.9835C81.5768 31.9433 85.1445 28.4116 85.1053 23.9235C85.0662 19.4354 81.4372 15.9452 76.8265 15.9854C72.2374 16.0254 68.67 19.5785 68.7092 24.0665C68.7481 28.5331 72.377 32.0236 76.9661 31.9835ZM76.8724 18.7768C79.8672 18.7507 82.2355 21.0064 82.2612 23.9483C82.2865 26.8473 79.9581 29.1655 76.9633 29.1916C73.99 29.2176 71.6218 26.9618 71.5963 24.0413C71.5706 21.0995 73.8776 18.8029 76.8724 18.7768ZM23.3876 46.869C35.7387 46.7612 45.6899 36.6102 45.5819 24.2348C45.4739 11.8594 35.3471 1.88359 22.996 1.99137C10.6449 2.09916 0.693668 12.2502 0.801666 24.6256C0.897497 37.0011 11.0365 46.9768 23.3876 46.869ZM25.8417 40.8115C25.0916 41.317 24.2542 41.5799 23.3294 41.5879C22.4046 41.596 21.5627 41.3478 20.8039 40.8555C19.9349 40.2911 19.5147 39.5524 19.5555 38.6515C19.6286 37.2636 19.6921 36.1678 19.7444 35.1937C19.7928 35.1568 19.8411 35.1199 19.8773 35.0831C19.9499 35.0337 20.0103 34.9845 20.0828 34.9231C20.1674 34.8615 20.2521 34.7999 20.3366 34.7261C20.6872 34.4553 21.0497 34.1601 21.4121 33.8527C21.4242 33.8404 21.4484 33.8281 21.4605 33.8158C21.5934 33.7051 21.7383 33.5821 21.8833 33.4592C21.8954 33.4591 21.8953 33.4469 21.8953 33.4469C22.3424 33.0779 22.7892 32.6846 23.248 32.2668C24.5109 33.3511 25.6997 34.3021 26.8142 35.1199C26.8836 36.0928 26.966 37.1752 27.0634 38.5738C27.1079 39.4862 26.7127 40.2198 25.8417 40.8115ZM35.9946 37.0356C35.4638 37.5756 34.9417 37.7141 34.9417 37.7141C32.7516 37.7575 29.3428 36.2052 23.9968 31.6153C25.2283 30.485 26.5315 29.2201 27.8945 27.8209C28.7749 26.9127 29.5944 25.9928 30.3286 25.0616C35.0358 30.3629 36.6597 33.7683 36.6545 35.9589C36.6546 35.971 36.5253 36.4955 35.9946 37.0356ZM36.4643 26.7117C35.8007 27.3747 35.0128 27.7223 34.0758 27.7305L33.8202 27.7327C32.9954 26.6447 32.0362 25.4969 30.9546 24.2772C30.9667 24.265 30.9787 24.2527 30.9907 24.2283C31.0509 24.1547 31.0989 24.0813 31.1591 24.0077C31.2674 23.8608 31.3877 23.7015 31.4959 23.5545C31.556 23.4688 31.6161 23.3831 31.6763 23.3096C31.7846 23.1626 31.8806 23.0157 31.9889 22.8687L32.145 22.6361C32.2532 22.477 32.3612 22.3057 32.4694 22.1465C32.5053 22.0854 32.5414 22.0364 32.5774 21.9752C32.8056 21.6325 33.0095 21.29 33.2257 20.9595L34.0288 20.9525C34.9658 20.9443 35.7596 21.266 36.4347 21.9294C37.0975 22.5808 37.4331 23.381 37.4413 24.318C37.4493 25.2428 37.1278 26.0488 36.4643 26.7117ZM36.424 10.9404C36.6818 11.1938 34.0944 20.1001 27.1948 27.1334C19.1614 35.3205 14.4502 37.9294 11.6756 37.9294C11.6756 37.9294 11.139 37.8001 10.6111 37.2692C10.071 36.7385 9.93257 36.2164 9.93257 36.2164C9.87175 33.4301 12.3979 28.662 20.4313 20.4748C27.3186 13.4295 36.1539 10.6751 36.424 10.9404ZM20.5053 8.037C21.2676 7.5314 22.1051 7.2807 23.0421 7.27252C23.979 7.26435 24.833 7.50028 25.5918 7.99261C26.4851 8.55678 26.8931 9.29556 26.8159 10.2089C26.7332 11.8891 26.6588 13.131 26.5956 14.2511C26.0026 14.6336 25.3977 15.0404 24.7929 15.4595C24.7808 15.4717 24.7688 15.484 24.7444 15.4842L24.2365 15.8537C24.2124 15.8783 24.1882 15.8907 24.1519 15.9153C24.0311 16.0137 23.898 16.1001 23.7771 16.1985C23.7167 16.2477 23.6562 16.2847 23.5958 16.334C23.4628 16.4325 23.3297 16.531 23.209 16.6416C23.1727 16.6662 23.1486 16.6908 23.1123 16.7154C21.9362 15.813 20.7488 15.0202 19.5865 14.3123C19.5036 13.1813 19.4077 11.953 19.2956 10.2624C19.2148 9.36256 19.6098 8.61678 20.5053 8.037ZM9.71402 11.1735C9.93115 10.9526 16.1775 12.7357 22.327 17.3673C21.433 18.1174 20.5516 18.9161 19.7072 19.7753C18.3683 21.1378 17.1626 22.4262 16.078 23.6526C11.3763 17.5845 9.50907 11.3944 9.71402 11.1735ZM9.90716 22.1487C10.5707 21.4858 11.3587 21.1382 12.2957 21.13L13.0988 21.123C13.7774 22.188 14.5415 23.2887 15.4154 24.4129C15.0058 24.891 14.6082 25.3569 14.2471 25.8104C14.235 25.8226 14.223 25.8349 14.2231 25.8471C13.9101 26.2392 13.597 26.6192 13.3083 26.999L13.1276 27.2196C13.0674 27.2932 13.0073 27.3789 12.9593 27.4523C12.8751 27.5626 12.8029 27.6606 12.7187 27.7708C12.6826 27.8198 12.6465 27.8688 12.5984 27.9301L12.3429 27.9323C11.4059 27.9405 10.5999 27.6189 9.93694 26.9554C9.2741 26.304 8.92637 25.5039 8.9182 24.5669C8.92208 23.6177 9.24362 22.8117 9.90716 22.1487Z" fill="white"/>
</g>
<defs>
<clipPath id="clip0_1_129">
<rect width="216" height="45.0254" fill="white" transform="translate(0.580902 2.12622) rotate(-0.5)"/>
</clipPath>
</defs>
</svg>
